<svg width="27" height="32" viewBox="0 0 27 32" fill="none" xmlns="http://www.w3.org/2000/svg">
<path fill-rule="evenodd" clip-rule="evenodd" d="M3.51501 1.88235C2.6326 1.88235 1.91728 2.58465 1.91728 3.45098V28.549C1.91728 29.4153 2.6326 30.1176 3.51501 30.1176H22.9434C23.8258 30.1176 24.5411 29.4153 24.5411 28.549V10.9176H16.872V1.88828C16.826 1.88435 16.7797 1.88235 16.7332 1.88235H3.51501ZM18.7893 3.29839V9.03529H24.2968C24.2407 8.9475 24.1755 8.86479 24.1018 8.78858L18.7893 3.29839ZM0 3.45098C0 1.54506 1.57372 0 3.51501 0H16.7332C17.6967 0 18.618 0.388305 19.2816 1.07412L25.4918 7.49211C26.1124 8.13348 26.4584 8.98433 26.4584 9.86898V28.549C26.4584 30.4549 24.8847 32 22.9434 32H3.51501C1.57372 32 0 30.4549 0 28.549V3.45098Z" fill="#219653"/>
<path fill-rule="evenodd" clip-rule="evenodd" d="M12.1208 20.6893L6.6717 14.7451L8.0968 13.4858L13.4784 19.3565L18.1754 14.7451L19.5311 16.0761L14.7628 20.7575L19.6005 26.0349L18.1754 27.2941L13.4052 22.0904L8.02742 27.3702L6.6717 26.0392L12.1208 20.6893Z" fill="#219653"/>
</svg>
