<svg width="27" height="32" viewBox="0 0 27 32" fill="none" xmlns="http://www.w3.org/2000/svg">
<path fill-rule="evenodd" clip-rule="evenodd" d="M3.51501 1.88235C2.6326 1.88235 1.91728 2.58465 1.91728 3.45098V28.549C1.91728 29.4153 2.6326 30.1176 3.51501 30.1176H22.9434C23.8258 30.1176 24.5411 29.4153 24.5411 28.549V10.9176H16.872V1.88828C16.826 1.88435 16.7797 1.88235 16.7332 1.88235H3.51501ZM18.7893 3.29839V9.03529H24.2968C24.2407 8.9475 24.1755 8.86479 24.1018 8.78858L18.7893 3.29839ZM0 3.45098C0 1.54506 1.57372 0 3.51501 0H16.7332C17.6967 0 18.618 0.388305 19.2816 1.07412L25.4918 7.49211C26.1124 8.13348 26.4584 8.98433 26.4584 9.86898V28.549C26.4584 30.4549 24.8847 32 22.9434 32H3.51501C1.57372 32 0 30.4549 0 28.549V3.45098Z" fill="#EB5757"/>
<path d="M7.93936 24.8946C7.15297 24.8946 6.54259 24.6171 6.10821 24.0619H6.02957C6.082 24.5766 6.10821 24.8891 6.10821 24.9994V27.4976H4.78821V18.6851H5.85544C5.8854 18.799 5.94719 19.0711 6.0408 19.5012H6.10821C6.52012 18.8836 7.13799 18.5748 7.96182 18.5748C8.73697 18.5748 9.33987 18.8505 9.7705 19.402C10.2049 19.9535 10.4221 20.7274 10.4221 21.7237C10.4221 22.72 10.2011 23.4976 9.75927 24.0564C9.32114 24.6152 8.71451 24.8946 7.93936 24.8946ZM7.61919 19.6336C7.09493 19.6336 6.7111 19.7843 6.4677 20.0858C6.22804 20.3873 6.10821 20.8689 6.10821 21.5307V21.7237C6.10821 22.4663 6.22804 23.0049 6.4677 23.3395C6.70736 23.6704 7.09868 23.8358 7.64165 23.8358C8.09851 23.8358 8.45051 23.652 8.69765 23.2843C8.9448 22.9167 9.06838 22.3928 9.06838 21.7126C9.06838 21.0288 8.9448 20.5123 8.69765 20.163C8.45425 19.8101 8.09476 19.6336 7.61919 19.6336Z" fill="#EB5757"/>
<path d="M14.0507 24.8946C13.2755 24.8946 12.6708 24.6189 12.2364 24.0674C11.802 23.516 11.5848 22.7421 11.5848 21.7457C11.5848 20.7457 11.8039 19.9682 12.242 19.413C12.6839 18.8542 13.2942 18.5748 14.0731 18.5748C14.8895 18.5748 15.5111 18.8707 15.938 19.4626H16.0054C15.9417 19.0251 15.9099 18.6796 15.9099 18.4259V16.2035H17.2355V24.7843H16.202L15.9717 23.9847H15.9099C15.4868 24.5913 14.867 24.8946 14.0507 24.8946ZM14.4045 23.8468C14.9475 23.8468 15.3426 23.6979 15.5897 23.4001C15.8369 23.0987 15.9642 22.6115 15.9717 21.9387V21.7568C15.9717 20.9884 15.8444 20.4424 15.5897 20.1189C15.3351 19.7954 14.9363 19.6336 14.3933 19.6336C13.929 19.6336 13.5714 19.8193 13.3205 20.1906C13.0696 20.5582 12.9441 21.084 12.9441 21.7678C12.9441 22.4443 13.0658 22.9608 13.3092 23.3174C13.5526 23.6704 13.9177 23.8468 14.4045 23.8468Z" fill="#EB5757"/>
<path d="M22.2403 19.6667H20.7237V24.7843H19.3981V19.6667H18.3758V19.0601L19.3981 18.663V18.266C19.3981 17.5454 19.5703 17.0123 19.9148 16.6667C20.2594 16.3174 20.7855 16.1428 21.4932 16.1428C21.9576 16.1428 22.4144 16.2182 22.8638 16.3689L22.5155 17.3505C22.1897 17.2476 21.8789 17.1961 21.5831 17.1961C21.2835 17.1961 21.0645 17.288 20.9259 17.4718C20.7911 17.652 20.7237 17.924 20.7237 18.288V18.6851H22.2403V19.6667Z" fill="#EB5757"/>
</svg>
