<svg width="20" height="20" viewBox="0 0 20 20" fill="none" xmlns="http://www.w3.org/2000/svg">
<path fill-rule="evenodd" clip-rule="evenodd" d="M13.2857 1H7.66667V3H13.2857V1ZM6.66667 0V4H14.2857V0H6.66667Z" fill="#EB5757"/>
<path fill-rule="evenodd" clip-rule="evenodd" d="M20 4L0 4L8.74228e-08 3L20 3V4Z" fill="#EB5757"/>
<path fill-rule="evenodd" clip-rule="evenodd" d="M2 6V18C2 19.1046 2.84276 20 3.88235 20H16.1176C17.1572 20 18 19.1046 18 18V6H17.0588V18C17.0588 18.5523 16.6374 19 16.1176 19H3.88235C3.36256 19 2.94118 18.5523 2.94118 18V6H2Z" fill="#EB5757"/>
<path fill-rule="evenodd" clip-rule="evenodd" d="M5.71429 17L5.71429 8H6.66668V17H5.71429Z" fill="#EB5757"/>
<path fill-rule="evenodd" clip-rule="evenodd" d="M9.52382 17L9.52382 8H10.4762L10.4762 17H9.52382Z" fill="#EB5757"/>
<path fill-rule="evenodd" clip-rule="evenodd" d="M13.3333 17V8H14.2857V17H13.3333Z" fill="#EB5757"/>
</svg>
