<svg width="98" height="88" viewBox="0 0 98 88" fill="none" xmlns="http://www.w3.org/2000/svg">
<path d="M81.2176 24.8104L80.2596 25.0971C80.38 25.4995 80.7392 25.7838 81.1585 25.8086L81.2176 24.8104ZM16.7824 24.8103L16.8415 25.8086C17.2608 25.7838 17.62 25.4995 17.7404 25.0971L16.7824 24.8103ZM34.1264 43.4909C33.7373 43.8829 33.7396 44.5161 34.1316 44.9052C34.5235 45.2942 35.1567 45.2919 35.5458 44.9L34.1264 43.4909ZM49 29.9273L49.7097 29.2228C49.522 29.0336 49.2665 28.9273 49 28.9273C48.7335 28.9273 48.478 29.0336 48.2903 29.2228L49 29.9273ZM62.4542 44.9C62.8433 45.2919 63.4765 45.2942 63.8684 44.9052C64.2604 44.5161 64.2627 43.8829 63.8736 43.4909L62.4542 44.9ZM48 87C48 87.5523 48.4477 88 49 88C49.5523 88 50 87.5523 50 87L48 87ZM81.1585 25.8086C89.4458 26.2992 96 33.112 96 41.4265H98C98 32.0312 90.5985 24.3639 81.2767 23.8121L81.1585 25.8086ZM96 41.4265C96 50.059 88.9348 57.0727 80.2 57.0727V59.0727C90.022 59.0727 98 51.1809 98 41.4265H96ZM80.2 57.0727H72.5151V59.0727H80.2V57.0727ZM25.4849 57.0727H17.8V59.0727H25.4849V57.0727ZM17.8 57.0727C9.06521 57.0727 2 50.059 2 41.4265H0C0 51.1809 7.97802 59.0727 17.8 59.0727V57.0727ZM2 41.4265C2 33.112 8.55424 26.2992 16.8415 25.8086L16.7233 23.8121C7.40147 24.3639 0 32.0312 0 41.4265H2ZM17.7404 25.0971C21.7366 11.7463 34.2167 2 49 2V0C33.3194 0 20.0701 10.3393 15.8244 24.5236L17.7404 25.0971ZM49 2C63.7833 2 76.2634 11.7463 80.2596 25.0971L82.1756 24.5236C77.9299 10.3393 64.6806 0 49 0V2ZM35.5458 44.9L49.7097 30.6318L48.2903 29.2228L34.1264 43.4909L35.5458 44.9ZM48.2903 30.6318L62.4542 44.9L63.8736 43.4909L49.7097 29.2228L48.2903 30.6318ZM48 29.9273L48 87L50 87L50 29.9273L48 29.9273Z" fill="#509ADE"/>
</svg>
