<svg width="27" height="32" viewBox="0 0 27 32" fill="none" xmlns="http://www.w3.org/2000/svg">
<path fill-rule="evenodd" clip-rule="evenodd" d="M3.48817 1.88235C2.6125 1.88235 1.90264 2.58465 1.90264 3.45098V28.549C1.90264 29.4153 2.61251 30.1176 3.48817 30.1176H22.7682C23.6439 30.1176 24.3538 29.4153 24.3538 28.549V10.9176H16.7432V1.88828C16.6976 1.88435 16.6516 1.88235 16.6054 1.88235H3.48817ZM18.6459 3.29839V9.03529H24.1113C24.0556 8.9475 23.9909 8.86479 23.9177 8.78858L18.6459 3.29839ZM0 3.45098C0 1.54506 1.56171 0 3.48817 0H16.6054C17.5616 0 18.4758 0.388305 19.1344 1.07412L25.2972 7.49211C25.913 8.13348 26.2564 8.98433 26.2564 9.86898V28.549C26.2564 30.4549 24.6947 32 22.7682 32H3.48817C1.56171 32 0 30.4549 0 28.549V3.45098Z" fill="#2F80ED"/>
<path fill-rule="evenodd" clip-rule="evenodd" d="M12.34 15.0591C12.7431 15.0477 13.1096 15.289 13.2547 15.6612L16.2953 23.4602L18.2953 15.7655L20.138 16.2343L17.3982 26.7755C17.2952 27.1718 16.9451 27.4569 16.5322 27.4807C16.1193 27.5045 15.7381 27.2616 15.5893 26.8798L12.4487 18.8245L9.84808 26.8291C9.72163 27.2183 9.35564 27.4823 8.9424 27.4823C8.52915 27.4823 8.16317 27.2183 8.03672 26.8291L4.61197 16.2879L6.42333 15.7119L8.9424 23.4655L11.4615 15.7119C11.5849 15.3321 11.9369 15.0705 12.34 15.0591Z" fill="#2F80ED"/>
</svg>
